<?xml version="1.0" ?><!DOCTYPE svg  PUBLIC '-//W3C//DTD SVG 1.1//EN'  'http://www.w3.org/Graphics/SVG/1.1/DTD/svg11.dtd'><svg enable-background="new 0 0 48 48" height="48px" version="1.1" viewBox="0 0 48 48" width="48px" xml:space="preserve" xmlns="http://www.w3.org/2000/svg" xmlns:xlink="http://www.w3.org/1999/xlink"><g id="Layer_3"><g><path d="M0.022,40.362c0.418,1.307,0.935,2.569,1.549,3.775h44.856c0.615-1.206,1.131-2.469,1.551-3.775H0.022z" fill="#241F20"/><path d="M13.931,37.845h12.586c2.963,0,5.434-2.057,6.1-4.816c1.666-0.798,3.953-2.114,6.162-4.12    c0.041-0.04,0.088-0.073,0.127-0.113c0.006-0.006,0.014-0.011,0.02-0.018c0-0.002,0-0.003,0-0.006    c0.885-0.907,1.436-2.145,1.436-3.513c0-2.78-2.254-5.034-5.033-5.034h-2.518V17.76H7.638v13.792    C7.638,35.028,10.455,37.845,13.931,37.845z M32.811,22.741h2.518c1.389,0,2.518,1.127,2.518,2.518    c0,0.366-0.084,0.71-0.227,1.022c-0.043,0.091-0.182,0.335-0.479,0.688c-0.061,0.063-0.113,0.134-0.18,0.189l-0.006,0.023    c-0.656,0.708-1.893,1.736-4.145,2.807V22.741z M10.155,20.277h20.138v10.762c0.023,0.169,0.053,0.337,0.053,0.513    c0,2.086-1.691,3.775-3.777,3.775H13.983v-0.004c-0.018,0-0.035,0.004-0.052,0.004c-2.086,0-3.776-1.689-3.776-3.775V20.277z" fill="#241F20"/><path d="M14.356,14.66c0.094,0.186,0.199,0.361,0.31,0.529h1.172c-0.007-0.014-0.017-0.024-0.023-0.038    c-0.879-1.727-0.732-3.702,0.208-5.243c0.126-0.162,0.244-0.331,0.35-0.506c0.02-0.025,0.037-0.051,0.057-0.074    c0.17-0.284,0.301-0.584,0.401-0.873c0.406-1.107,0.454-2.354,0.047-3.56c-0.125-0.37-0.291-0.713-0.483-1.033h-1.043    c0.05,0.119,0.098,0.239,0.14,0.363c0.554,1.646,0.264,3.369-0.631,4.709h0.006c0,0-0.108,0.156-0.254,0.403    c-0.257,0.404-0.459,0.84-0.6,1.296c-0.103,0.304-0.187,0.633-0.221,0.966c0.005-0.003,0.011-0.006,0.016-0.008    C13.688,12.61,13.855,13.677,14.356,14.66z" fill="#241F20"/><path d="M19.198,14.66c0.093,0.186,0.198,0.361,0.31,0.529h1.171c-0.007-0.014-0.017-0.024-0.023-0.038    c-0.877-1.727-0.731-3.702,0.209-5.243c0.126-0.162,0.244-0.331,0.349-0.506c0.02-0.025,0.037-0.051,0.058-0.074    c0.171-0.284,0.301-0.584,0.401-0.873c0.406-1.107,0.454-2.354,0.047-3.56c-0.125-0.37-0.292-0.713-0.483-1.033h-1.042    c0.05,0.119,0.098,0.239,0.141,0.363c0.554,1.646,0.264,3.369-0.632,4.709h0.006c0,0-0.108,0.156-0.254,0.403    c-0.256,0.404-0.459,0.84-0.6,1.296c-0.103,0.304-0.186,0.633-0.221,0.966c0.006-0.003,0.011-0.006,0.016-0.008    C18.53,12.61,18.696,13.677,19.198,14.66z" fill="#241F20"/><path d="M24.038,14.66c0.094,0.186,0.199,0.361,0.31,0.529h1.171c-0.006-0.014-0.016-0.024-0.023-0.038    c-0.878-1.727-0.732-3.702,0.209-5.243c0.125-0.162,0.242-0.331,0.348-0.506c0.021-0.025,0.037-0.051,0.059-0.074    c0.17-0.284,0.301-0.584,0.402-0.873c0.406-1.107,0.453-2.354,0.047-3.56c-0.125-0.37-0.291-0.713-0.482-1.033h-1.045    c0.051,0.119,0.098,0.239,0.141,0.363c0.555,1.646,0.266,3.369-0.631,4.709h0.007c0,0-0.109,0.156-0.255,0.403    c-0.256,0.404-0.458,0.84-0.599,1.296c-0.103,0.304-0.186,0.633-0.221,0.966c0.006-0.003,0.011-0.006,0.016-0.008    C23.37,12.61,23.538,13.677,24.038,14.66z" fill="#241F20"/></g></g></svg>